:SAMPLES-PER-SECOND 24
:FULLY-SPECIFIED
:DEGREES
325
root  0.363368 40.9393 39.3591 -176.901 -69.3672 171.277
RightUpLeg  -5.7262 -8.95411 -19.319
RightLeg  16.5718 12.6344 3.97668
RightFoot  15.6221 -3.88433 16.558
RightToes  -1.74623e-010 0 -2.59999e-017
Spine  4.75115 -2.32479 -10.1723
Spine1  10.3039 -4.80166 6.96604
HEad  -20.0928 -38.4871 17.9849
LeftShoulder1  2.288 -3.77317 -25.2762
LeftArm  16.3507 11.3841 -42.5577
LeftForeArm  81.7108 -79.7423 -84.0717
LeftHand  0.144741 6.85937 12.9932
RightShoulder  3.26105 5.46231 30.474
RightArm  -20.098 -17.5793 24.5935
RightForeArm  -5.85648 53.5509 15.8033
RightHand  -1.63568 0.931971 -29.6196
LeftUpLeg  3.15949 18.1825 14.479
LeftLeg  20.459 -5.81443 -2.06267
LeftFoot  7.88697 3.34281 -19.8469
LeftToes  -6.27559e-011 -2.10356e-011 8.24929e-012
326
root  0.433292 41.412 39.802 -177.115 -69.3535 171.214
RightUpLeg  -5.70674 -8.90455 -19.7384
RightLeg  14.9987 10.0084 2.73735
RightFoot  19.9404 -3.95025 14.5183
RightToes  -1.74623e-010 0 -2.59999e-017
Spine  5.13716 -2.26847 -9.30321
Spine1  10.5812 -4.7586 6.86684
HEad  -20.0604 -38.5312 17.4952
LeftShoulder1  2.20469 -3.96972 -23.2383
LeftArm  17.2395 12.0591 -46.7368
LeftForeArm  75.3759 -79.5653 -77.2794
LeftHand  0.0619358 6.10543 12.9224
RightShoulder  3.13494 5.37932 29.3723
RightArm  -16.5852 -17.6851 25.848
RightForeArm  -17.7168 44.8463 12.2446
RightHand  -1.36556 0.606245 -26.1028
LeftUpLeg  2.13836 20.6385 11.8148
LeftLeg  22.6388 -5.75155 -2.28331
LeftFoot  8.83666 3.90865 -22.0651
LeftToes  -6.27559e-011 -2.10356e-011 8.24929e-012
327
root  0.59228 41.2612 40.1974 -177.54 -70.2972 170.96
RightUpLeg  -5.5652 -7.50471 -20.3834
RightLeg  16.8244 2.59701 0.628026
RightFoot  16.6201 -1.92055 8.0696
RightToes  -1.74623e-010 0 -2.59999e-017
Spine  6.15765 -2.46561 -9.05704
Spine1  10.795 -5.17296 6.92644
HEad  -20.2897 -38.1691 17.0591
LeftShoulder1  2.05078 -4.00894 -20.9003
LeftArm  20.0293 9.6655 -49.5221
LeftForeArm  72.2539 -79.4247 -76.2227
LeftHand  0.0631865 6.13597 12.6613
RightShoulder  2.98136 5.25403 28.0889
RightArm  -10.3738 -16.7708 27.1416
RightForeArm  -20.8538 36.5028 9.42208
RightHand  -0.878376 -0.602513 -21.1368
LeftUpLeg  0.7249 19.6155 9.30858
LeftLeg  25.3476 -2.43142 -0.904896
LeftFoot  9.95828 3.41125 -18.3476
LeftToes  -6.27559e-011 -2.10356e-011 8.24929e-012
328
root  0.752961 40.4622 40.5701 -179.014 -71.0556 171.826
RightUpLeg  -6.42693 -5.01779 -21.0094
RightLeg  21.8514 -2.64268 -1.3866
RightFoot  13.0757 -0.445944 2.43437
RightToes  -1.74623e-010 0 -2.59999e-017
Spine  7.37161 -2.54211 -8.29456
Spine1  10.2563 -5.32044 6.40877
HEad  -20.5787 -37.8615 16.6225
LeftShoulder1  1.95273 -3.98793 -19.5825
LeftArm  23.226 5.48955 -50.3289
LeftForeArm  78.8449 -79.6256 -83.5469
LeftHand  0.05486 6.09646 12.0769
RightShoulder  2.86979 5.19798 26.9905
RightArm  -1.48497 -16.0296 28.0768
RightForeArm  -18.8588 29.7837 7.43449
RightHand  -0.820587 -0.0805177 -17.9793
LeftUpLeg  -0.682262 15.9767 7.67313
LeftLeg  29.2814 -0.585325 0.0106713
LeftFoot  4.78859 2.12124 -15.0328
LeftToes  -6.27559e-011 -2.10356e-011 8.24929e-012
329
root  0.914399 39.0922 40.7524 -179.974 -70.9881 172.442
RightUpLeg  -8.34158 -2.89748 -21.7921
RightLeg  28.4267 -4.33968 -2.76593
RightFoot  8.55302 -0.839836 5.12096
RightToes  -1.74623e-010 0 -2.59999e-017
Spine  7.73361 -2.0988 -8.88825
Spine1  10.1395 -5.21426 6.49995
HEad  -21.0116 -37.3583 16.6106
LeftShoulder1  1.91364 -3.83342 -19.5992
LeftArm  25.5605 -0.3664 -49.5965
LeftForeArm  92.1558 -79.5836 -97.3861
LeftHand  0.0623737 6.17801 11.9944
RightShoulder  2.91676 5.3602 26.9125
RightArm  9.36677 -14.6087 27.9142
RightForeArm  -17.0693 25.143 6.21478
RightHand  -0.725405 0.0360458 -15.5412
LeftUpLeg  -1.34235 14.7387 7.72495
LeftLeg  33.5235 -0.917997 -0.276458
LeftFoot  -7.02106 0.603403 -14.8176
LeftToes  -6.27559e-011 -2.10356e-011 8.24929e-012
330
root  1.18298 37.6527 40.6063 -177.292 -71.7482 169.529
RightUpLeg  -9.38329 -2.80209 -23.0306
RightLeg  33.3949 -6.19234 -4.61255
RightFoot  -0.113864 -1.2859 13.0776
RightToes  -1.74623e-010 0 -2.59999e-017
Spine  7.22842 -1.28226 -12.9671
Spine1  11.2981 -5.4734 8.72782
HEad  -22.6445 -37.4487 18.3547
LeftShoulder1  1.88076 -3.44058 -20.6722
LeftArm  27.992 -9.32343 -47.8649
LeftForeArm  98.5259 -79.1281 -106.329
LeftHand  0.167338 7.04307 13.1411
RightShoulder  3.16989 5.59102 28.9197
RightArm  13.1499 -13.1145 26.9401
RightForeArm  -8.741 21.8047 5.94254
RightHand  -0.414261 -0.256211 -9.51507
LeftUpLeg  -2.53131 16.6464 8.10041
LeftLeg  37.7352 -3.2495 -2.30392
LeftFoot  -17.008 -0.623439 -14.6501
LeftToes  -6.27559e-011 -2.10356e-011 8.24929e-012
331
root  1.49733 36.7813 40.2996 -172.892 -74.5768 165.286
RightUpLeg  -8.90672 -5.23765 -23.9132
RightLeg  35.4534 -7.15666 -5.67585
RightFoot  -7.63717 -0.646146 17.7608
RightToes  -1.74623e-010 0 -2.59999e-017
Spine  6.59362 -1.16364 -16.0081
Spine1  12.7527 -5.93855 10.0859
HEad  -25.3661 -38.8809 21.9004
LeftShoulder1  1.90913 -3.23079 -22.013
LeftArm  30.5033 -17.9237 -47.0639
LeftForeArm  97.2107 -79.2315 -104.57
LeftHand  0.223806 7.53843 13.2731
RightShoulder  3.51692 5.79556 31.9345
RightArm  -1.78251 -14.0314 28.1648
RightForeArm  6.88398 16.4639 8.23723
RightHand  -0.413215 0.551561 -8.16085
LeftUpLeg  -5.32224 16.5862 7.83918
LeftLeg  41.5183 -4.70691 -4.02117
LeftFoot  -21.0268 -1.05094 -13.8072
LeftToes  -6.27559e-011 -2.10356e-011 8.24929e-012
332
root  1.68365 36.9487 39.9495 -172.754 -77.553 165.995
RightUpLeg  -7.94028 -10.2212 -23.7507
RightLeg  34.6589 -4.46149 -3.5313
RightFoot  -7.60343 -0.668993 18.7771
RightToes  -1.74623e-010 0 -2.59999e-017
Spine  5.96814 -1.77514 -14.4375
Spine1  13.1276 -5.92963 8.71454
HEad  -27.5662 -40.6696 25.1264
LeftShoulder1  1.99291 -3.32123 -22.9175
LeftArm  31.594 -18.639 -48.8242
LeftForeArm  99.6248 -79.7014 -100.496
LeftHand  0.125882 6.98127 10.8502
RightShoulder  3.67851 5.90789 33.2063
RightArm  -21.5851 -16.7929 32.5223
RightForeArm  11.9958 8.93635 10.3209
RightHand  -0.795261 0.75004 -14.9624
LeftUpLeg  -6.89498 14.193 8.43414
LeftLeg  40.6714 -4.53566 -3.75917
LeftFoot  -20.1095 -0.962865 -14.0448
LeftToes  -6.27559e-011 -2.10356e-011 8.24929e-012
333
root  1.75772 38.1041 39.4286 -177.591 -78.6792 171.788
RightUpLeg  -6.1357 -15.6867 -22.9188
RightLeg  30.2853 1.21979 0.540182
RightFoot  -0.670745 -1.85246 19.6084
RightToes  -1.74623e-010 0 -2.59999e-017
Spine  5.78846 -1.7461 -12.6288
Spine1  11.8837 -5.61248 8.7055
HEad  -28.5121 -41.6534 26.5144
LeftShoulder1  2.03608 -3.29355 -23.7137
LeftArm  31.3565 -11.0046 -51.6172
LeftForeArm  107.42 -79.8099 -103.582
LeftHand  0.0508328 6.29681 9.41821
RightShoulder  3.64602 5.9219 32.8025
RightArm  -25.6332 -18.9097 35.3749
RightForeArm  7.64532 3.79623 10.805
RightHand  -0.789112 0.489729 -15.6282
LeftUpLeg  -4.57163 13.31 10.2529
LeftLeg  32.8519 -4.85929 -2.99964
LeftFoot  -13.9444 -0.257948 -14.9421
LeftToes  -6.27559e-011 -2.10356e-011 8.24929e-012
334
root  1.81736 39.5042 38.7313 179.576 -79.0849 175.097
RightUpLeg  -2.92507 -17.157 -22.2199
RightLeg  23.3238 7.68439 3.41824
RightFoot  7.10768 -3.04423 18.9279
RightToes  -1.74623e-010 0 -2.59999e-017
Spine  6.33346 -1.14267 -12.3592
Spine1  9.92336 -5.12541 10.2281
HEad  -28.645 -42.1206 26.5881
LeftShoulder1  2.08389 -3.2685 -24.5694
LeftArm  31.4294 -1.64728 -52.6309
LeftForeArm  110.468 -79.5401 -107.86
LeftHand  -0.01162 5.46919 10.1613
RightShoulder  3.63173 5.92573 32.6356
RightArm  -21.9931 -21.4724 35.0213
RightForeArm  11.4334 4.42746 11.3081
RightHand  -0.32116 0.256392 -6.81945
LeftUpLeg  -0.44045 13.0744 11.7219
LeftLeg  22.1902 -4.77097 -2.02746
LeftFoot  -4.30138 1.03951 -16.3069
LeftToes  -6.27559e-011 -2.10356e-011 8.24929e-012
335
root  1.95298 40.3631 38.0242 -177.937 -79.9836 172.846
RightUpLeg  -0.570981 -13.0287 -22.2052
RightLeg  19.1174 10.4331 3.83378
RightFoot  9.63694 -2.85017 15.6334
RightToes  -1.74623e-010 0 -2.59999e-017
Spine  6.19743 -1.15225 -11.1582
Spine1  9.4156 -4.56969 8.96809
HEad  -28.6877 -42.4031 26.205
LeftShoulder1  2.15902 -3.52642 -24.5134
LeftArm  31.0127 4.95318 -50.9787
LeftForeArm  113.923 -79.1663 -112.533
LeftHand  -0.100606 4.27114 8.98122
RightShoulder  3.52277 5.77983 32.0667
RightArm  -18.5956 -24.122 35.4131
RightForeArm  13.615 8.97368 10.7807
RightHand  -0.0217478 1.03142 -0.486782
LeftUpLeg  1.59682 10.2068 11.9816
LeftLeg  15.9671 -0.773003 -0.987705
LeftFoot  2.52721 2.17631 -17.9217
LeftToes  -6.27559e-011 -2.10356e-011 8.24929e-012
336
root  2.21539 40.4966 37.4024 -172.906 -80.9741 168.193
RightUpLeg  -0.49272 -10.3359 -23.1369
RightLeg  21.2137 7.85138 3.14164
RightFoot  9.01139 -2.13902 12.2123
RightToes  -1.74623e-010 0 -2.59999e-017
Spine  4.98222 -1.79466 -9.45806
Spine1  10.8103 -4.44007 6.28947
HEad  -28.796 -42.2727 25.4375
LeftShoulder1  2.11229 -3.70632 -23.0257
LeftArm  29.1396 8.47177 -49.0846
LeftForeArm  120.456 -78.8058 -117.568
LeftHand  -0.116956 3.53998 6.44555
RightShoulder  3.18877 5.39614 29.9199
RightArm  -13.9106 -24.101 37.0254
RightForeArm  5.47386 13.1565 9.91216
RightHand  0.0233726 -0.0551681 0.505378
LeftUpLeg  0.728126 10.6143 11.8626
LeftLeg  17.8655 -0.560378 -0.224764
LeftFoot  3.90867 2.35317 -17.6472
LeftToes  -6.27559e-011 -2.10356e-011 8.24929e-012
337
root  2.59339 39.9839 36.7419 -169.168 -81.7064 164.579
RightUpLeg  -0.853253 -9.81275 -24.0793
RightLeg  25.768 4.18356 1.98022
RightFoot  8.32668 -2.30205 13.556
RightToes  -1.74623e-010 0 -2.59999e-017
Spine  4.62387 -2.08388 -9.03018
Spine1  11.5734 -4.5086 5.30143
HEad  -27.5564 -42.2648 23.7679
LeftShoulder1  1.93673 -3.58595 -20.9211
LeftArm  27.0345 9.8768 -48.3526
LeftForeArm  118.5 -79.0577 -115.126
LeftHand  -0.111849 3.66123 6.53178
RightShoulder  2.82889 4.95446 27.4755
RightArm  -6.973 -22.3901 37.2121
RightForeArm  -2.72623 17.5559 7.99943
RightHand  -0.0473416 -0.68452 -1.08592
LeftUpLeg  -1.01751 10.0618 12.3167
LeftLeg  25.1975 -2.1195 -0.741811
LeftFoot  2.16124 1.95634 -16.5405
LeftToes  -6.27559e-011 -2.10356e-011 8.24929e-012
338
root  3.02096 38.883 35.9982 -168.893 -81.8334 163.812
RightUpLeg  -0.861125 -8.36047 -24.1877
RightLeg  30.1574 3.68403 2.09951
RightFoot  2.20156 -2.2124 18.7967
RightToes  -1.74623e-010 0 -2.59999e-017
Spine  5.87311 -1.74629 -9.19265
Spine1  10.8801 -4.22961 5.05513
HEad  -25.3941 -42.5867 21.8178
LeftShoulder1  1.80776 -3.47896 -19.3902
LeftArm  24.882 10.0755 -47.2001
LeftForeArm  112.698 -79.3 -110.977
LeftHand  -0.0786254 4.51187 8.19726
RightShoulder  2.60817 4.64342 25.9924
RightArm  -0.513916 -20.3409 35.2372
RightForeArm  -7.43014 22.4292 5.64541
RightHand  -0.249429 -0.448717 -5.8169
LeftUpLeg  -1.86852 9.88866 13.9963
LeftLeg  32.8876 -3.7354 -2.22747
LeftFoot  -3.05199 1.26099 -17.1374
LeftToes  -6.27559e-011 -2.10356e-011 8.24929e-012
